<?xml version="1.0" encoding="utf-8"?>
<!-- Generator: Adobe Illustrator 24.3.0, SVG Export Plug-In . SVG Version: 6.00 Build 0)  -->
<svg version="1.1" id="레이어_1" xmlns="http://www.w3.org/2000/svg" xmlns:xlink="http://www.w3.org/1999/xlink" x="0px"
	 y="0px" viewBox="0 0 595.28 841.89" style="enable-background:new 0 0 595.28 841.89;" xml:space="preserve">
<style type="text/css">
	.st0{fill:#F8CAB9;}
	.st1{fill:#FFEF00;}
	.st2{fill:#F5E82F;}
	.st3{fill:#FFFFFF;}
	.st4{fill:none;stroke:#FFFFFF;stroke-width:10;}
	.st5{fill:#F5E82F;stroke:#000000;stroke-width:7;stroke-linecap:round;stroke-linejoin:round;stroke-miterlimit:10;}
	.st6{fill:#430306;}
</style>
<g>
	<path class="st6" d="M87.44,447.41c-0.04-0.06-0.07-0.13-0.11-0.19C87.37,447.28,87.41,447.34,87.44,447.41z"/>
	<path class="st6" d="M90.23,451.67c0-0.01-0.01-0.01-0.01-0.02C90.22,451.66,90.23,451.67,90.23,451.67z"/>
	<path class="st6" d="M89.27,450.33c-0.02-0.04-0.05-0.07-0.07-0.11C89.22,450.25,89.24,450.29,89.27,450.33z"/>
	<path class="st6" d="M88.33,448.9c-0.03-0.05-0.07-0.11-0.1-0.16C88.27,448.79,88.3,448.85,88.33,448.9z"/>
	<path class="st6" d="M91.28,453.01C91.28,453.01,91.28,453.01,91.28,453.01C91.28,453.01,91.28,453.01,91.28,453.01z"/>
	<path class="st6" d="M111.22,469.83c0,0.01-0.01,0.02-0.01,0.03C111.21,469.85,111.21,469.84,111.22,469.83L111.22,469.83z"/>
	<path class="st6" d="M94.82,456.81c-0.04-0.04-0.08-0.08-0.13-0.12C94.74,456.74,94.78,456.78,94.82,456.81z"/>
	<path class="st6" d="M93.59,455.61c-0.04-0.04-0.07-0.07-0.11-0.11C93.52,455.54,93.56,455.57,93.59,455.61z"/>
	<path class="st6" d="M92.41,454.34c-0.02-0.03-0.05-0.05-0.07-0.08C92.37,454.29,92.39,454.32,92.41,454.34z"/>
	<path class="st6" d="M86.61,445.86c-0.03-0.07-0.07-0.13-0.1-0.2C86.54,445.72,86.57,445.79,86.61,445.86z"/>
	<path class="st6" d="M83.92,439.28c-0.01-0.03-0.02-0.07-0.03-0.1C83.9,439.21,83.91,439.25,83.92,439.28z"/>
	<path class="st6" d="M82.65,434.06c-0.02-0.08-0.03-0.17-0.04-0.25C82.62,433.89,82.63,433.97,82.65,434.06z"/>
	<path class="st6" d="M82.16,430.35c-0.01-0.07-0.01-0.14-0.02-0.22C82.14,430.2,82.15,430.27,82.16,430.35z"/>
	<path class="st6" d="M82.36,432.22c-0.01-0.08-0.02-0.17-0.03-0.25C82.34,432.05,82.35,432.14,82.36,432.22z"/>
	<path class="st6" d="M110.01,474.04c0.01-0.18,0.03-0.35,0.05-0.52C110.04,473.69,110.02,473.86,110.01,474.04z"/>
	<path class="st6" d="M82.03,428.44c0-0.05,0-0.1,0-0.14C82.03,428.34,82.03,428.39,82.03,428.44z"/>
	<path class="st6" d="M83.01,435.85c-0.02-0.08-0.03-0.16-0.05-0.23C82.97,435.7,82.99,435.78,83.01,435.85z"/>
	<path class="st6" d="M85.11,442.6c-0.02-0.04-0.03-0.09-0.05-0.13C85.08,442.52,85.1,442.56,85.11,442.6z"/>
	<path class="st6" d="M84.47,440.91c0-0.01-0.01-0.02-0.01-0.02C84.46,440.9,84.46,440.9,84.47,440.91z"/>
	<path class="st6" d="M96.09,457.95c-0.04-0.04-0.08-0.07-0.12-0.11C96.01,457.88,96.05,457.92,96.09,457.95z"/>
	<path class="st6" d="M83.43,437.6c-0.02-0.06-0.03-0.12-0.05-0.18C83.4,437.48,83.42,437.54,83.43,437.6z"/>
	<path class="st6" d="M85.83,444.25c-0.03-0.06-0.05-0.12-0.08-0.18C85.78,444.13,85.8,444.19,85.83,444.25z"/>
	<path class="st6" d="M97.39,459.02c-0.03-0.03-0.07-0.05-0.1-0.08C97.32,458.97,97.36,459,97.39,459.02z"/>
	<path class="st6" d="M110.1,473.21c0.02-0.15,0.05-0.3,0.07-0.44C110.15,472.91,110.13,473.06,110.1,473.21z"/>
	<path class="st6" d="M110.25,472.46c0.03-0.13,0.06-0.27,0.1-0.4C110.31,472.19,110.28,472.32,110.25,472.46z"/>
	<path class="st6" d="M110.43,471.75c0.04-0.12,0.07-0.24,0.11-0.36C110.51,471.51,110.47,471.63,110.43,471.75z"/>
	<path class="st6" d="M103,462.67c-0.02-0.01-0.04-0.02-0.07-0.04C102.95,462.65,102.98,462.66,103,462.67z"/>
	<path class="st6" d="M104.53,463.43c-0.04-0.02-0.07-0.04-0.11-0.05C104.46,463.4,104.49,463.42,104.53,463.43z"/>
	<path class="st6" d="M106.09,464.12c-0.04-0.02-0.09-0.04-0.13-0.05C106,464.08,106.05,464.1,106.09,464.12z"/>
	<path class="st6" d="M109.27,465.26c-0.03-0.01-0.06-0.02-0.09-0.03C109.21,465.24,109.24,465.25,109.27,465.26z"/>
	<path class="st6" d="M110.91,470.45c0.05-0.1,0.09-0.2,0.14-0.29C111.01,470.25,110.96,470.35,110.91,470.45z"/>
	<path class="st6" d="M107.67,464.73c-0.04-0.01-0.08-0.03-0.12-0.04C107.59,464.7,107.63,464.71,107.67,464.73z"/>
	<path class="st6" d="M110.66,471.08c0.04-0.11,0.08-0.22,0.13-0.33C110.74,470.86,110.7,470.97,110.66,471.08z"/>
	<path class="st6" d="M110.86,465.7c0,0-0.01,0-0.01,0C110.85,465.7,110.86,465.7,110.86,465.7z"/>
	<path class="st6" d="M98.71,460.02c-0.02-0.01-0.03-0.02-0.05-0.03C98.68,459.99,98.69,460,98.71,460.02z"/>
	<path class="st6" d="M109.96,475.14c0-0.28,0.01-0.56,0.03-0.83C109.96,474.58,109.96,474.85,109.96,475.14z"/>
	<path class="st6" d="M111.67,469.08c-0.05,0.07-0.1,0.14-0.14,0.22C111.57,469.23,111.62,469.16,111.67,469.08z"/>
	<path class="st6" d="M111.99,468.62c-0.04,0.05-0.08,0.1-0.12,0.16C111.91,468.73,111.95,468.67,111.99,468.62z"/>
	<path class="st6" d="M112.26,468.26c-0.01,0.01-0.01,0.02-0.02,0.03C112.25,468.28,112.26,468.27,112.26,468.26z"/>
	<path class="st6" d="M111.35,469.6c-0.04,0.08-0.09,0.16-0.13,0.24v0C111.26,469.76,111.31,469.68,111.35,469.6z"/>
	<path class="st6" d="M86.85,410.03c-0.4-0.31-0.78-0.65-1.15-1c-2.38,5.29-3.72,11.21-3.72,17.47l1.5-1.61
		C83.68,419.6,84.87,414.58,86.85,410.03z"/>
	<path class="st6" d="M81.99,426.51c0,0.6,0.01,1.2,0.04,1.79C82,427.7,81.99,427.11,81.99,426.51z"/>
	<path class="st6" d="M83.89,439.18c-0.16-0.52-0.31-1.05-0.45-1.58C83.58,438.13,83.73,438.66,83.89,439.18z"/>
	<path class="st6" d="M97.29,458.94c-0.41-0.32-0.81-0.65-1.2-0.99C96.48,458.29,96.88,458.62,97.29,458.94z"/>
	<path class="st6" d="M84.46,440.89c-0.19-0.53-0.37-1.07-0.54-1.61C84.09,439.82,84.27,440.36,84.46,440.89z"/>
	<path class="st6" d="M82.33,431.97c-0.07-0.54-0.13-1.08-0.18-1.62C82.2,430.89,82.26,431.43,82.33,431.97z"/>
	<path class="st6" d="M82.14,430.13c-0.05-0.56-0.08-1.12-0.11-1.69C82.05,429.01,82.09,429.57,82.14,430.13z"/>
	<path class="st6" d="M82.96,435.62c-0.11-0.52-0.21-1.04-0.31-1.56C82.74,434.58,82.84,435.1,82.96,435.62z"/>
	<path class="st6" d="M83.38,437.42c-0.14-0.52-0.26-1.04-0.38-1.56C83.12,436.38,83.25,436.9,83.38,437.42z"/>
	<path class="st6" d="M82.6,433.8c-0.09-0.52-0.17-1.05-0.24-1.58C82.43,432.75,82.52,433.28,82.6,433.8z"/>
	<path class="st6" d="M110.86,465.7c0.12,0.03,0.24,0.06,0.36,0.09v-0.01C111.1,465.75,110.98,465.73,110.86,465.7z"/>
	<path class="st6" d="M92.34,454.26c-0.36-0.41-0.72-0.82-1.06-1.25C91.62,453.44,91.98,453.85,92.34,454.26z"/>
	<path class="st6" d="M102.93,462.63c-1.46-0.78-2.87-1.65-4.22-2.62C100.06,460.98,101.47,461.86,102.93,462.63z"/>
	<path class="st6" d="M91.27,453.01c-0.36-0.44-0.7-0.88-1.04-1.34C90.57,452.13,90.92,452.57,91.27,453.01z"/>
	<path class="st6" d="M104.42,463.38c-0.48-0.23-0.95-0.46-1.42-0.71C103.47,462.92,103.94,463.15,104.42,463.38z"/>
	<path class="st6" d="M90.22,451.65c-0.32-0.43-0.64-0.88-0.95-1.33C89.58,450.78,89.89,451.22,90.22,451.65z"/>
	<path class="st6" d="M95.97,457.85c-0.39-0.34-0.77-0.68-1.14-1.03C95.2,457.17,95.58,457.51,95.97,457.85z"/>
	<path class="st6" d="M98.66,459.98c-0.43-0.31-0.85-0.63-1.27-0.96C97.81,459.35,98.23,459.67,98.66,459.98z"/>
	<path class="st6" d="M94.7,456.7c-0.37-0.35-0.74-0.72-1.1-1.09C93.95,455.98,94.32,456.34,94.7,456.7z"/>
	<path class="st6" d="M93.49,455.5c-0.37-0.38-0.72-0.76-1.08-1.16C92.76,454.74,93.12,455.12,93.49,455.5z"/>
	<path class="st6" d="M89.19,450.22c-0.29-0.43-0.58-0.87-0.86-1.32C88.61,449.35,88.9,449.79,89.19,450.22z"/>
	<path class="st6" d="M86.51,445.66c-0.23-0.46-0.46-0.93-0.68-1.4C86.05,444.73,86.27,445.2,86.51,445.66z"/>
	<path class="st6" d="M85.75,444.08c-0.22-0.49-0.43-0.97-0.63-1.47C85.32,443.1,85.53,443.59,85.75,444.08z"/>
	<path class="st6" d="M107.55,464.68c-0.49-0.18-0.98-0.37-1.46-0.57C106.57,464.32,107.06,464.51,107.55,464.68z"/>
	<path class="st6" d="M109.18,465.23c-0.51-0.16-1.01-0.32-1.51-0.5C108.17,464.91,108.67,465.07,109.18,465.23z"/>
	<path class="st6" d="M110.85,465.7c-0.53-0.14-1.06-0.28-1.58-0.44C109.79,465.41,110.32,465.56,110.85,465.7z"/>
	<path class="st6" d="M85.06,442.48c-0.21-0.52-0.41-1.04-0.6-1.57C84.65,441.44,84.85,441.96,85.06,442.48z"/>
	<path class="st6" d="M87.34,447.22c-0.25-0.45-0.49-0.9-0.73-1.36C86.84,446.32,87.09,446.77,87.34,447.22z"/>
	<path class="st6" d="M88.23,448.74c-0.27-0.44-0.53-0.88-0.79-1.33C87.7,447.86,87.96,448.3,88.23,448.74z"/>
	<path class="st6" d="M105.96,464.07c-0.48-0.2-0.96-0.41-1.43-0.63C105,463.65,105.48,463.86,105.96,464.07z"/>
	<path class="st6" d="M111.22,465.78L111.22,465.78c0.98,0.24,1.98,0.44,2.99,0.6C113.2,466.23,112.2,466.02,111.22,465.78z"/>
	<path class="st6" d="M83.45,426.51c0-0.54,0.01-1.07,0.03-1.61l-1.5,1.61L83.45,426.51L83.45,426.51z"/>
	<path class="st6" d="M82.03,428.44c0.03,0.57,0.06,1.13,0.11,1.69c0.01,0.07,0.01,0.14,0.02,0.22c0.05,0.54,0.11,1.09,0.18,1.62
		c0.01,0.08,0.02,0.17,0.03,0.25c0.07,0.53,0.15,1.06,0.24,1.58c0.01,0.08,0.03,0.17,0.04,0.25c0.09,0.52,0.2,1.05,0.31,1.56
		c0.02,0.08,0.03,0.16,0.05,0.23c0.12,0.52,0.24,1.05,0.38,1.56c0.02,0.06,0.03,0.12,0.05,0.18c0.14,0.53,0.29,1.06,0.45,1.58
		c0.01,0.03,0.02,0.07,0.03,0.1c0.17,0.54,0.35,1.08,0.54,1.61c0,0.01,0.01,0.02,0.01,0.02c0.19,0.53,0.39,1.05,0.6,1.57
		c0.02,0.04,0.03,0.09,0.05,0.13c0.2,0.5,0.41,0.99,0.63,1.47c0.03,0.06,0.05,0.12,0.08,0.18c0.22,0.47,0.44,0.94,0.68,1.4
		c0.03,0.07,0.07,0.13,0.1,0.2c0.23,0.46,0.48,0.91,0.73,1.36c0.04,0.06,0.07,0.13,0.11,0.19c0.26,0.45,0.52,0.89,0.79,1.33
		c0.03,0.05,0.07,0.11,0.1,0.16c0.28,0.45,0.56,0.89,0.86,1.32c0.02,0.04,0.05,0.07,0.07,0.11c0.31,0.45,0.62,0.89,0.95,1.33
		c0,0.01,0.01,0.01,0.01,0.02c0.34,0.45,0.69,0.9,1.04,1.34c0,0,0,0,0,0.01c0.35,0.42,0.7,0.84,1.06,1.25
		c0.02,0.03,0.05,0.05,0.07,0.08c0.35,0.39,0.71,0.78,1.08,1.16c0.04,0.04,0.07,0.07,0.11,0.11c0.36,0.37,0.73,0.73,1.1,1.09
		c0.04,0.04,0.08,0.08,0.13,0.12c0.37,0.35,0.76,0.7,1.14,1.03c0.04,0.04,0.08,0.07,0.12,0.11c0.39,0.34,0.79,0.67,1.2,0.99
		c0.03,0.03,0.07,0.05,0.1,0.08c0.42,0.33,0.84,0.65,1.27,0.96c0.02,0.01,0.03,0.02,0.05,0.03c1.35,0.97,2.76,1.84,4.22,2.62
		c0.02,0.01,0.04,0.02,0.07,0.04c0.47,0.25,0.94,0.48,1.42,0.71c0.04,0.02,0.07,0.04,0.11,0.05c0.47,0.22,0.95,0.43,1.43,0.63
		c0.04,0.02,0.09,0.04,0.13,0.05c0.48,0.2,0.97,0.39,1.46,0.57c0.04,0.01,0.08,0.03,0.12,0.04c0.5,0.18,1,0.35,1.51,0.5
		c0.03,0.01,0.06,0.02,0.09,0.03c0.52,0.16,1.05,0.31,1.58,0.44c0,0,0.01,0,0.01,0c0.12,0.03,0.24,0.05,0.36,0.08v-1.5
		c-15.92-4.02-27.77-19.41-27.77-37.78h-1.46c0,0.6,0.01,1.2,0.04,1.79C82.03,428.34,82.03,428.39,82.03,428.44z"/>
	<path class="st6" d="M114.21,466.38c0.65-0.49,1.31-0.9,1.94-1.23c-1.68-0.17-3.33-0.45-4.93-0.86v1.5
		C112.2,466.02,113.2,466.23,114.21,466.38L114.21,466.38z"/>
	<path class="st6" d="M118.1,387.73l1.39-1.49c-3.8,0-7.46,0.61-10.92,1.74c0.32,0.4,0.63,0.81,0.91,1.24
		C112.23,388.36,115.12,387.85,118.1,387.73z"/>
	<path class="st6" d="M119.27,387.7c0.07-0.13,0.14-0.25,0.21-0.38v-1.09h0l-1.39,1.49C118.49,387.71,118.88,387.71,119.27,387.7z"
		/>
	<path class="st6" d="M119.49,387.7v-0.37c-0.07,0.13-0.14,0.25-0.21,0.38C119.35,387.7,119.42,387.7,119.49,387.7
		C119.49,387.7,119.49,387.7,119.49,387.7z"/>
	<path class="st6" d="M190.38,465.67c5.9,0.62,10.87,0.18,14.62-0.53l-0.87-2.76c-4.24,1.89-8.88,2.93-13.75,2.93V465.67z"/>
	<path class="st6" d="M120.12,386.25c-0.21,0-0.42-0.01-0.64-0.01v1.09C119.7,386.96,119.91,386.61,120.12,386.25z"/>
	<path class="st6" d="M119.49,387.7c17.68,0,32.38,13.7,35.45,31.78c3.07-18.08,17.77-31.78,35.45-31.78
		c19.9,0,36.04,17.37,36.04,38.81c0,16.19-9.2,30.06-22.28,35.88l0.87,2.76c4.9-0.92,7.7-2.29,7.7-2.29l0,0h0h0
		c0.01,0,7.21-3.94,10,1.57c1.4,2.76,0.53,5.03-0.68,6.6c-1.12,1.46-2.73,2.47-4.5,2.98c-4.46,1.29-16.74,4.43-27.59,3.67
		c-0.06,0.25-0.13,0.5-0.2,0.74h0.17v2.13h0.62c0.18-0.44,0.35-0.89,0.5-1.34c10.69,0.49,22.3-2.46,26.91-3.79
		c2.16-0.62,3.98-1.83,5.26-3.5c1.92-2.5,2.21-5.4,0.82-8.15c-0.88-1.73-2.19-2.88-3.92-3.42c-3.55-1.1-7.57,0.94-8.06,1.2
		c-0.26,0.12-2.86,1.3-7.24,2.13c13.54-6.08,23.08-20.45,23.08-37.18c0-22.21-16.82-40.27-37.5-40.27
		c-16.2,0-30.31,11.08-35.45,27.08c-5.07-15.79-18.88-26.78-34.81-27.07c-0.22,0.36-0.43,0.71-0.64,1.08V387.7z"/>
	<path class="st6" d="M88.08,410.91c-0.42-0.27-0.83-0.56-1.23-0.87c-1.98,4.54-3.17,9.57-3.37,14.86l1.57-1.68
		C85.4,418.86,86.45,414.71,88.08,410.91z"/>
	<path class="st6" d="M111.22,463.63v-0.86c-15.08-4.01-26.31-18.75-26.31-36.26c0-1.11,0.05-2.21,0.14-3.29l-1.57,1.68
		c-0.02,0.53-0.03,1.07-0.03,1.61v0h0.63C84.08,444.2,95.53,459.56,111.22,463.63z"/>
	<path class="st6" d="M119.49,463.85c-2.85,0-5.62-0.38-8.27-1.08v0.86c1.08,0.28,2.19,0.51,3.31,0.68l2.56,0.39
		c1.19-0.52,2.15-0.76,2.49-0.84C119.54,463.86,119.52,463.85,119.49,463.85z"/>
	<path class="st6" d="M84.08,426.51h-0.63c0,18.37,11.85,33.76,27.77,37.78v-0.65C95.53,459.56,84.08,444.2,84.08,426.51z"/>
	<path class="st6" d="M117.08,464.7l-2.56-0.39c-1.12-0.17-2.22-0.4-3.31-0.68v0.65c1.61,0.41,3.25,0.69,4.93,0.86
		C116.47,464.98,116.78,464.83,117.08,464.7z"/>
	<path class="st6" d="M116.64,389.29l1.46-1.57c-2.98,0.12-5.87,0.63-8.62,1.49c0.28,0.42,0.53,0.85,0.77,1.3
		C112.31,389.9,114.44,389.49,116.64,389.29z"/>
	<path class="st6" d="M118.46,389.18c0.26-0.5,0.53-0.99,0.81-1.48c-0.39,0-0.79,0.01-1.18,0.03l-1.46,1.57
		C117.24,389.24,117.85,389.2,118.46,389.18z"/>
	<path class="st6" d="M119.49,389.16c16.7,0,31,12.85,34,30.57c0.12,0.7,0.73,1.22,1.44,1.22s1.32-0.52,1.44-1.22
		c3.01-17.71,17.31-30.57,34-30.57c19.06,0,34.57,16.75,34.57,37.34c0,20.59-15.51,37.34-34.57,37.34c-0.81,0-1.46,0.66-1.46,1.46
		v0.36c0,0.75,0.57,1.38,1.31,1.46c13.87,1.47,22.74-2.77,23.12-2.95c0.02-0.01,0.04-0.02,0.06-0.03c0.03-0.02,3.33-1.76,5.82-0.99
		c0.95,0.29,1.66,0.93,2.17,1.94c0.89,1.77,0.72,3.42-0.53,5.05c-0.88,1.15-2.21,2.03-3.75,2.47c-4.63,1.33-16.54,4.36-27.08,3.61
		c-0.71-0.05-1.36,0.42-1.53,1.11c-0.09,0.37-0.2,0.73-0.32,1.09h0.89l0.44-1.37l1.6,0.07c10.41,0.48,21.81-2.44,26.23-3.71
		c1.73-0.5,3.17-1.45,4.18-2.76c1.43-1.86,1.64-3.91,0.61-5.94c-0.62-1.22-1.49-2-2.67-2.36c-2.8-0.87-6.31,0.97-6.46,1.05
		l-0.1,0.05c-0.31,0.14-3.12,1.42-7.73,2.29l-0.19-0.59c-3.75,0.71-8.72,1.15-14.62,0.53v-0.36c4.87,0,9.52-1.04,13.75-2.93
		l-0.19-0.61c13.27-5.96,21.85-19.8,21.85-35.27c0-21.05-15.88-38.18-35.41-38.18c-15.09,0-28.53,10.3-33.46,25.63l-1.99,6.2
		l-1.99-6.2c-4.92-15.33-18.37-25.63-33.46-25.63v-0.63c0,0,0,0,0,0c-0.07,0-0.14,0-0.21,0c-0.28,0.49-0.55,0.98-0.81,1.48
		C118.8,389.17,119.14,389.16,119.49,389.16z"/>
	<path class="st6" d="M152.94,413.96l1.99,6.2l1.99-6.2c4.92-15.33,18.37-25.63,33.46-25.63c19.53,0,35.41,17.13,35.41,38.18
		c0,15.47-8.58,29.31-21.85,35.27l0.19,0.61c13.08-5.82,22.28-19.69,22.28-35.88c0-21.43-16.13-38.81-36.04-38.81
		c-17.68,0-32.38,13.7-35.45,31.78c-3.07-18.08-17.77-31.78-35.45-31.78v0.63C134.58,388.33,148.02,398.63,152.94,413.96z"/>
	<path class="st6" d="M212.92,463.45l0.1-0.05c0.15-0.08,3.66-1.91,6.46-1.05c1.18,0.37,2.05,1.14,2.67,2.36
		c1.02,2.03,0.81,4.08-0.61,5.94c-1.01,1.31-2.45,2.27-4.18,2.76c-4.42,1.27-15.82,4.19-26.23,3.71l-1.6-0.07l-0.44,1.37h0.65
		c0.07-0.24,0.14-0.49,0.2-0.74c10.85,0.77,23.13-2.38,27.59-3.67c1.77-0.51,3.38-1.52,4.5-2.98c1.21-1.58,2.07-3.84,0.68-6.6
		c-2.79-5.52-10-1.58-10-1.57h0h0l0,0c0,0-2.8,1.36-7.7,2.29l0.19,0.59C209.8,464.86,212.62,463.59,212.92,463.45z"/>
	<path class="st2" d="M110.25,390.52c0.67,1.26,1.16,2.63,1.46,4.07l4.93-5.29C114.44,389.49,112.31,389.9,110.25,390.52z"/>
	<path class="st2" d="M88.08,410.91c-1.63,3.8-2.68,7.95-3.03,12.31l9.31-10C92.07,412.91,89.94,412.1,88.08,410.91z"/>
	<path class="st2" d="M101.02,439.6c-6.08,0-11.03-4.95-11.03-11.03c0-6.08,4.95-11.03,11.03-11.03c4.6,0,8.55,2.83,10.2,6.84v-6.03
		c0-10.54,2.62-20.46,7.24-29.15c-0.61,0.02-1.22,0.06-1.83,0.11l-4.93,5.29c0.22,1.03,0.34,2.1,0.34,3.2
		c0,8.59-6.99,15.58-15.58,15.58c-0.71,0-1.42-0.05-2.1-0.15l-9.31,10c-0.09,1.08-0.14,2.18-0.14,3.29
		c0,17.51,11.22,32.25,26.31,36.26v-30.01C109.57,436.77,105.62,439.6,101.02,439.6z"/>
	<path class="st2" d="M119.57,463.86c0.08-0.02,0.13-0.03,0.13-0.03c0.74-0.13,1.46,0.28,1.62,0.92c0.06,0.25,0.02,0.5-0.09,0.72
		l8.1,3.12c0.21-0.26,0.54-0.43,0.87-0.48c0.5-0.08,1.01,0.05,1.51,0.16c6.5,1.5,13.29,0.67,19.95,1.05c3.4,0.19,6.86,0.73,9.9,2.26
		c1.08,0.55,2.12,1.23,2.91,2.15c0.79,0.92,1.32,2.11,1.29,3.32c-0.01,0.47-0.11,0.92-0.27,1.36h22.7c0.12-0.36,0.23-0.72,0.32-1.09
		c0.17-0.69,0.81-1.16,1.53-1.11c10.54,0.74,22.45-2.28,27.08-3.61c1.53-0.44,2.86-1.32,3.75-2.47c1.25-1.63,1.42-3.28,0.53-5.05
		c-0.51-1.01-1.22-1.65-2.17-1.94c-2.49-0.77-5.79,0.97-5.82,0.99c-0.02,0.01-0.04,0.02-0.06,0.03c-0.37,0.18-9.25,4.42-23.12,2.95
		c-0.74-0.08-1.31-0.71-1.31-1.46v-0.36c0-0.81,0.66-1.46,1.46-1.46c19.06,0,34.57-16.75,34.57-37.34
		c0-20.59-15.51-37.34-34.57-37.34c-16.7,0-31,12.85-34,30.57c-0.12,0.7-0.73,1.22-1.44,1.22s-1.32-0.52-1.44-1.22
		c-3.01-17.71-17.31-30.57-34-30.57c-0.34,0-0.68,0.01-1.02,0.02c-4.62,8.7-7.24,18.62-7.24,29.15v6.03
		c0.53,1.29,0.83,2.71,0.83,4.19c0,1.48-0.3,2.9-0.83,4.19v30.01c2.65,0.71,5.42,1.08,8.27,1.08
		C119.52,463.85,119.54,463.86,119.57,463.86z M176.09,434.58c6.79-1.03,8.37,9.51,1.59,10.54
		C170.89,446.14,169.31,435.61,176.09,434.58z M161.17,431.47c5.09-0.77,6.28,7.13,1.19,7.9
		C157.27,440.15,156.09,432.24,161.17,431.47z M159.33,449.7c4.08-0.73,8.16-1.49,12.24-2.24c2.06-0.38,2.65,3.57,0.6,3.95
		c-3.08,0.56-6.17,1.23-9.27,1.8c-0.89,6.82-2.99,14.2-9.61,13.96c-2.98-0.11-3.68-2.41-4.64-5.53c-1.24-4.03-2.32-8.11-3.3-12.22
		c-0.4-1.67,1.48-2.91,2.54-1.81C151.27,451.12,155.42,450.41,159.33,449.7z M146.73,434.18c5.09-0.77,6.28,7.13,1.19,7.9
		C142.83,442.85,141.65,434.95,146.73,434.18z"/>
	<path class="st6" d="M108.04,389.7c0.47-0.17,0.95-0.33,1.43-0.48c0,0,0,0,0,0c-0.28-0.43-0.59-0.84-0.91-1.24c0,0,0,0,0,0
		c-0.49,0.16-0.98,0.34-1.47,0.52c0,0,0,0,0,0C107.43,388.88,107.75,389.28,108.04,389.7C108.04,389.7,108.04,389.7,108.04,389.7z"
		/>
	<path class="st6" d="M86.85,410.03c0.2-0.46,0.41-0.91,0.62-1.36c0,0,0,0,0,0c-0.39-0.32-0.76-0.67-1.11-1.03c0,0,0,0,0,0
		c-0.23,0.46-0.45,0.92-0.66,1.39c0,0,0,0,0,0C86.07,409.39,86.45,409.72,86.85,410.03C86.85,410.03,86.85,410.03,86.85,410.03z"/>
	<path class="st6" d="M110.25,390.52L110.25,390.52c-0.24-0.45-0.49-0.88-0.77-1.3c0,0,0,0,0,0c-0.48,0.15-0.96,0.31-1.43,0.48
		c0,0,0,0,0,0c0.29,0.41,0.56,0.84,0.8,1.28c0,0,0,0,0,0C109.3,390.81,109.77,390.66,110.25,390.52z"/>
	<path class="st6" d="M88.08,410.91c0.19-0.45,0.39-0.9,0.6-1.34c0,0,0,0,0,0c-0.42-0.28-0.82-0.57-1.21-0.89c0,0,0,0,0,0
		c-0.22,0.45-0.42,0.9-0.62,1.36c0,0,0,0,0,0C87.24,410.34,87.65,410.64,88.08,410.91C88.08,410.91,88.08,410.91,88.08,410.91z"/>
	<path class="st6" d="M110.25,390.52L110.25,390.52c-0.47,0.14-0.94,0.3-1.41,0.46c0,0,0,0,0,0c0.83,1.5,1.39,3.17,1.62,4.95
		l1.25-1.34C111.41,393.15,110.92,391.78,110.25,390.52z"/>
	<path class="st6" d="M88.08,410.91C88.08,410.91,88.08,410.91,88.08,410.91c1.86,1.19,3.99,2,6.28,2.31l1.26-1.35
		c-2.55-0.15-4.92-0.98-6.93-2.31c0,0,0,0,0,0C88.47,410.01,88.27,410.45,88.08,410.91z"/>
	<path class="st6" d="M96.46,413.37c8.59,0,15.58-6.99,15.58-15.58c0-1.1-0.12-2.16-0.34-3.2l-1.25,1.34
		c0.08,0.61,0.12,1.23,0.12,1.86c0,7.8-6.32,14.12-14.12,14.12c-0.29,0-0.57-0.01-0.85-0.03l-1.26,1.35
		C95.05,413.31,95.75,413.37,96.46,413.37z"/>
	<path class="st6" d="M87.47,408.67c0.22-0.46,0.45-0.91,0.68-1.35c-0.38-0.33-0.74-0.68-1.08-1.05c-0.25,0.45-0.49,0.91-0.72,1.38
		c0,0,0,0,0,0C86.71,408,87.08,408.35,87.47,408.67C87.47,408.67,87.47,408.67,87.47,408.67z"/>
	<path class="st6" d="M108.04,389.7c-0.29-0.42-0.61-0.82-0.94-1.2c0,0,0,0,0,0c-0.49,0.18-0.97,0.38-1.45,0.58c0,0,0,0,0,0
		c0.35,0.37,0.68,0.76,0.98,1.17C107.09,390.05,107.56,389.87,108.04,389.7C108.04,389.7,108.04,389.7,108.04,389.7z"/>
	<path class="st6" d="M87.47,408.67c0.39,0.32,0.79,0.62,1.21,0.89c0,0,0,0,0,0c0.21-0.45,0.43-0.89,0.66-1.32
		c-0.41-0.28-0.81-0.59-1.19-0.92C87.92,407.76,87.69,408.21,87.47,408.67C87.47,408.67,87.47,408.67,87.47,408.67z"/>
	<path class="st6" d="M108.84,390.98c-0.24-0.44-0.51-0.87-0.8-1.28c0,0,0,0,0,0c-0.48,0.17-0.95,0.35-1.41,0.55
		c0.3,0.4,0.57,0.82,0.82,1.25C107.91,391.32,108.37,391.14,108.84,390.98C108.84,390.98,108.84,390.98,108.84,390.98z"/>
	<path class="st6" d="M88.68,409.56c2.01,1.33,4.38,2.16,6.93,2.31l1.35-1.44c-0.16,0.01-0.33,0.01-0.5,0.01
		c-2.64,0-5.09-0.81-7.12-2.2C89.11,408.67,88.89,409.12,88.68,409.56C88.68,409.56,88.68,409.56,88.68,409.56z"/>
	<path class="st6" d="M110.46,395.93c-0.23-1.77-0.8-3.44-1.62-4.95c0,0,0,0,0,0c-0.47,0.16-0.93,0.34-1.39,0.52
		c1,1.74,1.59,3.75,1.66,5.88L110.46,395.93z"/>
	<path class="st6" d="M110.58,397.78c0-0.63-0.04-1.25-0.12-1.86l-1.36,1.46c0,0.13,0.01,0.27,0.01,0.4
		c0,6.81-5.41,12.38-12.16,12.64l-1.35,1.44c0.28,0.02,0.56,0.03,0.85,0.03C104.26,411.9,110.58,405.58,110.58,397.78z"/>
	<path class="st2" d="M120.94,480.56h-1.6h-1.96c2.39,0.81,5.16,0.99,7.44,1.17c5.71,0.46,11.47,0.42,17.2,0.46
		c5.59,0.03,11.23-0.25,16.66-1.63h-36.11H120.94z"/>
	<path class="st2" d="M118.02,473.99v-7.07c-2.24,1.04-5.34,3.35-5.34,8.22c0,1.57,0.52,2.79,1.58,3.72
		c0.88,0.77,1.96,1.31,3.12,1.7h1.96C118.49,478.53,118.02,476.31,118.02,473.99z"/>
	<path class="st2" d="M119.35,480.56h1.6c-0.93-2-1.46-4.22-1.46-6.57v-7.63c-0.39,0.12-0.9,0.3-1.46,0.56v7.07
		C118.02,476.31,118.49,478.53,119.35,480.56z"/>
	<path class="st2" d="M120.94,480.56h1.64c-1.04-1.96-1.63-4.2-1.63-6.57v-8.15c-0.18,0.16-0.41,0.27-0.68,0.32
		c-0.06,0.01-0.35,0.07-0.78,0.2v7.63C119.49,476.34,120.01,478.56,120.94,480.56z"/>
	<path class="st2" d="M120.95,465.83v8.15c0,2.37,0.59,4.61,1.63,6.57h36.11c0.17-0.04,0.34-0.08,0.51-0.13
		c1.42-0.38,2.88-0.95,3.63-2.29c3.1-5.52-9.02-6.24-11.91-6.38c-6.19-0.31-12.46,0.34-18.59-0.8c-0.49-0.09-0.97-0.19-1.45-0.31
		c-0.43-0.1-0.86-0.22-1.22-0.48c-0.35-0.26-0.61-0.7-0.54-1.13c0.03-0.17,0.11-0.32,0.21-0.44l-8.1-3.12
		C121.17,465.61,121.07,465.73,120.95,465.83z"/>
	<path class="st6" d="M110.78,470.75c0.04-0.1,0.09-0.2,0.13-0.3C110.87,470.55,110.83,470.65,110.78,470.75z"/>
	<path class="st6" d="M110.55,471.39c0.04-0.1,0.07-0.21,0.11-0.31C110.62,471.18,110.58,471.28,110.55,471.39z"/>
	<path class="st6" d="M111.05,470.16c0.05-0.1,0.1-0.2,0.15-0.3C111.15,469.96,111.1,470.06,111.05,470.16z"/>
	<path class="st6" d="M110.34,472.06c0.03-0.11,0.06-0.21,0.09-0.31C110.4,471.85,110.37,471.95,110.34,472.06z"/>
	<path class="st6" d="M110.06,473.52c0.01-0.1,0.03-0.2,0.05-0.31C110.09,473.31,110.07,473.41,110.06,473.52z"/>
	<path class="st6" d="M110.18,472.77c0.02-0.11,0.05-0.21,0.07-0.31C110.22,472.56,110.2,472.66,110.18,472.77z"/>
	<path class="st6" d="M163.61,481.02c0.17-0.15,0.34-0.3,0.5-0.47l0,0C163.95,480.72,163.78,480.88,163.61,481.02z"/>
	<path class="st6" d="M109.98,474.31c0.01-0.09,0.02-0.18,0.02-0.27C110,474.13,109.99,474.22,109.98,474.31z"/>
	<path class="st6" d="M111.87,468.78c-0.07,0.1-0.14,0.2-0.21,0.31C111.74,468.98,111.8,468.88,111.87,468.78z"/>
	<path class="st6" d="M111.53,469.3c-0.06,0.1-0.12,0.2-0.17,0.3C111.41,469.5,111.47,469.4,111.53,469.3z"/>
	<path class="st6" d="M112.26,468.26c0.6-0.74,1.26-1.36,1.95-1.89l0,0C113.53,466.9,112.86,467.52,112.26,468.26z"/>
	<path class="st6" d="M112.24,468.29c-0.09,0.11-0.17,0.22-0.25,0.33C112.07,468.51,112.16,468.4,112.24,468.29z"/>
	<path class="st6" d="M111.21,469.86c-0.05,0.1-0.1,0.2-0.15,0.3c-0.05,0.1-0.09,0.2-0.14,0.29c-0.04,0.1-0.09,0.2-0.13,0.3
		c-0.04,0.11-0.09,0.22-0.13,0.33c-0.04,0.1-0.07,0.2-0.11,0.31c-0.04,0.12-0.08,0.24-0.11,0.36c-0.03,0.1-0.06,0.21-0.09,0.31
		c-0.03,0.13-0.07,0.26-0.1,0.4c-0.02,0.1-0.05,0.21-0.07,0.31c-0.03,0.14-0.05,0.29-0.07,0.44c-0.02,0.1-0.03,0.2-0.05,0.31
		c-0.02,0.17-0.04,0.34-0.05,0.52c-0.01,0.09-0.02,0.18-0.02,0.27c-0.02,0.27-0.03,0.55-0.03,0.83c0,1.6,0.43,2.99,1.26,4.16v-9.46
		C111.21,469.84,111.21,469.85,111.21,469.86z"/>
	<path class="st6" d="M162.83,480.56h-1.11c-2.58,1.44-7.44,2.74-16.59,2.74c-14.57,0-25.48,0.2-30.59-2.74h-2.18
		c0.29,0.25,0.6,0.48,0.92,0.69c3.75,2.46,8.89,2.73,13.23,2.99c4.48,0.26,9,0.34,13.52,0.33c4.17,0,8.35,0.14,12.51-0.27
		c3.74-0.37,8.08-0.75,11.07-3.27c0.17-0.15,0.34-0.3,0.5-0.47H162.83z"/>
	<path class="st6" d="M111.32,475.14c0-4.53,2.43-7.11,4.71-8.53c-0.61-0.06-1.22-0.14-1.82-0.23l0,0l0,0
		c-0.68,0.52-1.35,1.15-1.95,1.89c-0.01,0.01-0.01,0.02-0.02,0.03c-0.09,0.11-0.17,0.22-0.25,0.33c-0.04,0.05-0.08,0.1-0.12,0.16
		c-0.07,0.1-0.14,0.2-0.21,0.31c-0.05,0.07-0.1,0.14-0.14,0.22c-0.06,0.1-0.12,0.2-0.17,0.3c-0.04,0.08-0.09,0.16-0.13,0.24v9.46
		c0.32,0.44,0.69,0.86,1.12,1.24c0.01,0.01,0.02,0.01,0.02,0.02h2.18C112.45,479.35,111.32,477.62,111.32,475.14z"/>
	<path class="st6" d="M116.15,465.15c-0.63,0.33-1.29,0.74-1.94,1.23c0.6,0.09,1.21,0.17,1.82,0.23c1.05-0.65,2.06-1.06,2.81-1.3
		C117.94,465.29,117.04,465.23,116.15,465.15z"/>
	<path class="st6" d="M119.22,465.19c0.48-0.14,0.77-0.19,0.77-0.19l0.96,0.37v-0.05c0-0.78-0.61-1.41-1.38-1.46
		c-0.34,0.08-1.3,0.32-2.49,0.84l2.31,0.35L119.22,465.19z"/>
	<path class="st6" d="M119.22,465.19l0.18-0.14l-2.31-0.35c-0.3,0.13-0.61,0.28-0.93,0.45c0.89,0.09,1.78,0.14,2.69,0.16
		C118.98,465.26,119.1,465.22,119.22,465.19z"/>
	<path class="st6" d="M164.48,473.74c-0.79-0.92-1.83-1.6-2.91-2.15c-3.04-1.54-6.5-2.07-9.9-2.26c-6.66-0.38-13.45,0.44-19.95-1.05
		c-0.5-0.11-1-0.24-1.51-0.16c-0.33,0.05-0.66,0.22-0.87,0.48l1.18,0.45c0,0-1.59,1.35,15.55,1.35c19.3,0,18.55,6.35,18.55,6.35
		s0.12,0.72-0.47,1.67h1.36c0.16-0.44,0.26-0.89,0.27-1.36C165.8,475.85,165.27,474.67,164.48,473.74z"/>
	<path class="st6" d="M121.32,464.75c-0.15-0.64-0.88-1.05-1.62-0.92c-0.01,0-0.05,0.01-0.13,0.03c0.77,0.05,1.38,0.68,1.38,1.46
		v0.05l0.28,0.11C121.35,465.25,121.39,465,121.32,464.75z"/>
	<path class="st6" d="M162.83,480.56v-0.73c-0.31,0.24-0.68,0.49-1.11,0.73H162.83z"/>
	<path class="st6" d="M142.03,482.19c-5.73-0.03-11.49,0.01-17.2-0.46c-2.28-0.19-5.05-0.36-7.44-1.17h-0.87
		c2.98,1.17,6.63,1.38,9.93,1.58l0.18,0.01c3.88,0.23,8.13,0.33,13.39,0.33c0.89,0,1.77,0.01,2.66,0.01
		c3.18,0.02,6.48,0.04,9.64-0.27l0.2-0.02c2.66-0.26,5.6-0.55,7.92-1.64h-1.76C153.26,481.93,147.62,482.22,142.03,482.19z"/>
	<path class="st6" d="M114.27,478.85c-1.07-0.93-1.58-2.14-1.58-3.72c0-4.87,3.1-7.18,5.34-8.22v-0.17
		c-0.26-0.01-0.53-0.03-0.79-0.04l-1.75,1.34c-2.28,1.74-3.44,4.13-3.44,7.1c0,1.6,0.54,2.85,1.67,3.82
		c0.21,0.18,0.45,0.36,0.72,0.54c0.64,0.42,1.34,0.77,2.09,1.06h0.87C116.23,480.16,115.15,479.62,114.27,478.85z"/>
	<path class="st6" d="M152.53,482.2l-0.2,0.02c-3.17,0.31-6.46,0.29-9.64,0.27c-0.89-0.01-1.78-0.01-2.66-0.01
		c-5.26,0-9.51-0.1-13.39-0.33l-0.18-0.01c-3.3-0.19-6.95-0.41-9.93-1.58h-1.98c5.11,2.94,16.02,2.74,30.59,2.74
		c9.15,0,14.01-1.3,16.59-2.74h-1.28C158.13,481.64,155.19,481.94,152.53,482.2z"/>
	<path class="st6" d="M114.43,479.5c-0.27-0.18-0.51-0.36-0.72-0.54c-1.12-0.97-1.67-2.22-1.67-3.82c0-2.97,1.16-5.35,3.44-7.1
		l1.75-1.34c-0.4-0.03-0.8-0.06-1.2-0.1c-2.29,1.42-4.71,4-4.71,8.53c0,2.49,1.13,4.22,3.22,5.42h1.98
		C115.78,480.27,115.08,479.92,114.43,479.5z"/>
	<path class="st6" d="M118.02,466.92c0.56-0.26,1.07-0.44,1.46-0.56v-1.05c-0.14,0-0.28,0-0.43-0.01l-1.83,1.4
		c0.26,0.02,0.53,0.03,0.79,0.04V466.92z"/>
	<path class="st6" d="M119.06,465.31c-0.07,0-0.15,0-0.22,0c-0.74,0.24-1.76,0.65-2.81,1.3c0.4,0.04,0.8,0.07,1.2,0.1L119.06,465.31
		z"/>
	<path class="st6" d="M119.49,466.36c0.43-0.13,0.72-0.19,0.78-0.2c0.27-0.05,0.5-0.17,0.68-0.32v-0.47l-0.96-0.37
		c0,0-0.29,0.05-0.77,0.19l-0.16,0.12c0.14,0,0.28,0.01,0.43,0.01V466.36z"/>
	<path class="st6" d="M118.84,465.3c0.07,0,0.15,0,0.22,0l0.16-0.12C119.1,465.22,118.98,465.26,118.84,465.3z"/>
	<path class="st6" d="M164.61,476.75c0,0,0.75-6.35-18.55-6.35c-17.14,0-15.55-1.35-15.55-1.35l-1.18-0.45
		c-0.11,0.13-0.18,0.28-0.21,0.44c-0.07,0.43,0.19,0.87,0.54,1.13c0.35,0.26,0.79,0.38,1.22,0.48c0.48,0.11,0.96,0.22,1.45,0.31
		c6.13,1.15,12.4,0.5,18.59,0.8c2.89,0.14,15.01,0.86,11.91,6.38c-0.75,1.34-2.21,1.91-3.63,2.29c-0.17,0.05-0.34,0.09-0.51,0.13
		h1.76c0.66-0.31,1.27-0.68,1.81-1.13c0.11-0.09,0.23-0.2,0.36-0.34l0.21-0.21v-0.45h1.3C164.72,477.47,164.61,476.75,164.61,476.75
		z"/>
	<path class="st6" d="M121.23,465.47l-0.28-0.11v0.47C121.07,465.73,121.17,465.61,121.23,465.47z"/>
	<path class="st6" d="M162.62,479.09c-0.13,0.14-0.25,0.25-0.36,0.34c-0.54,0.45-1.15,0.82-1.81,1.13h1.28
		c0.43-0.24,0.8-0.48,1.11-0.73v-0.96L162.62,479.09z"/>
	<path class="st6" d="M147.92,442.08c5.08-0.77,3.9-8.67-1.19-7.9C141.65,434.95,142.83,442.85,147.92,442.08z"/>
	<path class="st6" d="M162.36,439.38c5.08-0.77,3.9-8.67-1.19-7.9C156.09,432.24,157.27,440.15,162.36,439.38z"/>
	<path class="st6" d="M177.68,445.12c6.78-1.02,5.2-11.56-1.59-10.54C169.31,435.61,170.89,446.14,177.68,445.12z"/>
	<path class="st0" d="M149.65,453.28c0.29,1.12,0.6,2.25,0.91,3.36c0.34,1.18,1.16,5.78,1.99,6.45c0.76,0.61,3.46-0.32,3.9-0.74
		c0.78-0.77,1.27-2.28,1.67-3.38c0.6-1.66,1.03-3.39,1.33-5.18c-0.77,0.12-1.54,0.23-2.31,0.32
		C154.59,454.42,152.02,454.31,149.65,453.28z"/>
	<path class="st6" d="M159.78,451.65c0.96-0.18,1.93-0.35,2.89-0.53C161.94,450.03,160.19,450.07,159.78,451.65z"/>
	<path class="st6" d="M162.95,451.84l-1.61,0.43c-0.04,0.42-0.09,0.83-0.15,1.24c0.57-0.1,1.13-0.2,1.7-0.3
		c0.03-0.22,0.06-0.44,0.08-0.65C163,452.3,162.99,452.06,162.95,451.84z"/>
	<path class="st6" d="M149.05,450.93c-0.16-0.66-0.33-1.33-0.48-2c-0.36,0.26-0.73,0.52-1.09,0.78
		C147.96,450.19,148.49,450.6,149.05,450.93z"/>
	<path class="st6" d="M145.35,449.42c0.98,4.11,2.06,8.2,3.3,12.22c0.96,3.11,1.65,5.42,4.64,5.53c6.61,0.25,8.71-7.14,9.61-13.96
		c-0.57,0.1-1.13,0.2-1.7,0.3c-0.41,2.89-1.2,5.68-2.33,8.23c-0.36,0.81-0.76,1.61-1.35,2.19c-1.15,1.14-2.79,1.23-4.31,1.27
		c-0.48,0.01-0.98,0.02-1.4-0.29c-0.5-0.36-0.75-1.07-0.96-1.72c-1.17-3.63-2.22-7.31-3.15-11.02c-0.57-0.41-1.13-0.87-1.66-1.43
		c0.37-0.27,0.74-0.53,1.12-0.8c-0.06-0.26-0.13-0.51-0.19-0.77c0.17,0.19,0.34,0.37,0.52,0.54c0.36-0.26,0.73-0.52,1.09-0.78
		c0.16,0.67,0.32,1.33,0.48,2c1.26,0.75,2.65,1.16,4.03,1.31c2.21,0.23,4.39-0.16,6.55-0.56c0.05-0.01,0.1-0.02,0.15-0.03
		c0.41-1.58,2.16-1.62,2.89-0.53c3.06-0.56,6.13-1.12,9.19-1.68l-8.91,2.4c0.04,0.22,0.05,0.46,0.02,0.72
		c-0.03,0.22-0.05,0.43-0.08,0.65c3.1-0.57,6.19-1.24,9.27-1.8c2.06-0.38,1.47-4.33-0.6-3.95c-4.08,0.75-8.15,1.51-12.24,2.24
		c-3.91,0.7-8.06,1.42-11.44-2.09C146.83,446.51,144.95,447.75,145.35,449.42z"/>
	<path class="st6" d="M146.03,450.75c0.53,0.55,1.09,1.02,1.66,1.43c-0.19-0.74-0.37-1.48-0.54-2.22
		C146.77,450.21,146.4,450.48,146.03,450.75z"/>
	<path class="st6" d="M157.13,454.11c0.77-0.09,1.54-0.2,2.31-0.32c0.1-0.6,0.19-1.2,0.26-1.81c0.01-0.12,0.04-0.22,0.07-0.33
		c-0.05,0.01-0.1,0.02-0.15,0.03c-2.16,0.4-4.34,0.79-6.55,0.56c-1.37-0.14-2.77-0.56-4.03-1.31c0.19,0.78,0.39,1.57,0.6,2.35
		C152.02,454.31,154.59,454.42,157.13,454.11z"/>
	<path class="st6" d="M149.05,450.93c-0.56-0.33-1.09-0.74-1.57-1.22c-0.11,0.08-0.22,0.16-0.33,0.23c0.18,0.74,0.36,1.48,0.54,2.22
		c0.63,0.45,1.29,0.81,1.96,1.11C149.44,452.5,149.24,451.71,149.05,450.93z"/>
	<path class="st6" d="M158.11,458.97c-0.4,1.1-0.89,2.61-1.67,3.38c-0.43,0.43-3.14,1.35-3.9,0.74c-0.83-0.67-1.65-5.27-1.99-6.45
		c-0.32-1.12-0.62-2.24-0.91-3.36c-0.67-0.29-1.32-0.66-1.96-1.11c0.94,3.71,1.99,7.39,3.15,11.02c0.21,0.65,0.46,1.36,0.96,1.72
		c0.42,0.31,0.93,0.3,1.4,0.29c1.52-0.04,3.16-0.13,4.31-1.27c0.58-0.58,0.99-1.38,1.35-2.19c1.13-2.55,1.92-5.33,2.33-8.23
		c-0.58,0.1-1.16,0.19-1.74,0.28C159.15,455.58,158.72,457.3,158.11,458.97z"/>
	<path class="st6" d="M162.95,451.84c-0.05-0.27-0.15-0.52-0.28-0.72c-0.96,0.18-1.93,0.35-2.89,0.53c-0.03,0.1-0.05,0.21-0.07,0.33
		c-0.07,0.61-0.16,1.22-0.26,1.81c0.58-0.09,1.16-0.18,1.74-0.28c0.06-0.41,0.11-0.83,0.15-1.24L162.95,451.84z"/>
	<path class="st6" d="M146.96,449.18c0.06,0.26,0.13,0.51,0.19,0.77c0.11-0.08,0.22-0.16,0.33-0.23
		C147.3,449.54,147.12,449.37,146.96,449.18z"/>
	<path class="st6" d="M171.86,449.44c-3.06,0.56-6.13,1.12-9.19,1.68c0.13,0.2,0.23,0.44,0.28,0.72L171.86,449.44z"/>
	<path class="st6" d="M189.73,478.42c-0.22,0.74-0.49,1.45-0.81,2.13h0.98v-2.13H189.73z"/>
	<path class="st6" d="M188.18,478.46h0.89l0.01-0.04h-0.89C188.19,478.44,188.18,478.45,188.18,478.46z"/>
	<path class="st6" d="M189.08,478.42l-0.01,0.04h-0.89c-0.24,0.73-0.54,1.43-0.89,2.09h1.63c0.32-0.69,0.59-1.4,0.81-2.13H189.08z"
		/>
	<path class="st6" d="M165.5,478.42c-0.01,0.01-0.01,0.03-0.02,0.04h22.7c0-0.01,0.01-0.03,0.01-0.04H165.5z"/>
	<path class="st6" d="M165.48,478.46c-0.29,0.78-0.78,1.49-1.37,2.09h23.18c0.35-0.66,0.64-1.36,0.89-2.09H165.48z"/>
	<path class="st6" d="M164.14,478.42c-0.01,0.01-0.02,0.03-0.03,0.04h1.37c0.01-0.01,0.01-0.03,0.02-0.04H164.14z"/>
	<path class="st6" d="M164.11,478.46c-0.27,0.42-0.67,0.89-1.28,1.37v0.73h1.28l0,0c0.59-0.6,1.08-1.31,1.37-2.09H164.11z"/>
	<path class="st6" d="M162.83,478.42v0.45l0.4-0.41h0.88c0.01-0.01,0.02-0.03,0.03-0.04H162.83z"/>
	<path class="st6" d="M162.83,478.87v0.96c0.61-0.47,1.01-0.94,1.28-1.37h-0.88L162.83,478.87z"/>
	<path class="st6" d="M101.02,417.53c-6.08,0-11.03,4.95-11.03,11.03c0,6.08,4.95,11.03,11.03,11.03c4.6,0,8.55-2.83,10.2-6.84
		v-8.39C109.57,420.36,105.62,417.53,101.02,417.53z M101.02,438.3c-5.38,0-9.74-4.36-9.74-9.74s4.36-9.74,9.74-9.74
		c5.38,0,9.74,4.36,9.74,9.74S106.4,438.3,101.02,438.3z"/>
	<path class="st6" d="M112.05,428.56c0-1.48-0.3-2.9-0.83-4.19v8.39C111.75,431.46,112.05,430.05,112.05,428.56z"/>
	<path class="st6" d="M101.02,418.82c-5.38,0-9.74,4.36-9.74,9.74s4.36,9.74,9.74,9.74c5.38,0,9.74-4.36,9.74-9.74
		S106.4,418.82,101.02,418.82z M101.02,437.01c-4.66,0-8.45-3.79-8.45-8.45s3.79-8.45,8.45-8.45c4.66,0,8.45,3.79,8.45,8.45
		S105.67,437.01,101.02,437.01z"/>
	<path class="st6" d="M215.9,479.37c1.18-0.3,2.17-0.58,2.94-0.8c2.84-0.82,5.24-2.43,6.95-4.65c2.69-3.51,3.11-7.74,1.15-11.63
		c-1.27-2.52-3.3-4.27-5.87-5.07c-0.47-0.15-0.96-0.26-1.46-0.34c7.37-8.08,11.55-19,11.55-30.38c0-24.01-18.29-43.55-40.78-43.55
		c-14.84,0-28.22,8.36-35.45,21.97c-6.51-12.22-18.24-20.35-31.39-21.75c11.45-16.24,29.96-25.88,49.89-25.88
		c33.65,0,61.03,27.38,61.03,61.03v61.03H215.9z"/>
</g>
<g>
	<path class="st6" d="M287.44,454.06c-1.15,4.43-3.28,8.51-6.37,12.24c-3.1,3.73-6.98,6.77-11.65,9.1
		c-4.67,2.34-9.86,3.66-15.57,3.96v-13.38c8.5-1.64,13.78-5.61,15.84-11.92H248.3v-14.47h41.42c8.01,0,14.41-0.36,19.21-1.09v14.47
		c-4.79,0.73-11.2,1.09-19.21,1.09H287.44z M263.96,419.15c3.22-2.4,4.82-5.66,4.82-9.79v-0.18h-17.39v-13.65h52.16v13.65h-18.48
		v0.18c0,1.64-0.12,3.06-0.36,4.28c6.55,0.61,11.73,2.84,15.52,6.69c3.79,3.85,5.72,9.09,5.78,15.7h-15.93
		c-0.24-2.97-1.35-5.45-3.32-7.42c-1.97-1.97-4.48-3.2-7.51-3.69c-3.04,3.52-7.1,6.34-12.2,8.47c-5.1,2.13-10.8,3.43-17.11,3.91
		v-13.56C256.07,423.08,260.74,421.55,263.96,419.15z M312.93,393.71h17.3v84.93h-17.3V393.71z"/>
	<path class="st6" d="M423.08,453.61h-33.04v25.49h-17.66v-25.49h-33.04v-14.02h58.53c2.31-7.04,3.46-14.44,3.46-22.21v-7.19h-58.99
		v-14.75h76.01v21.94c0,8.25-1.06,15.66-3.19,22.21h7.92V453.61z"/>
	<path class="st6" d="M432.27,395.8h49.34v14.93h13.38v-17.02h17.3v46.7h-17.3v-16.39h-13.38v14.29h-49.34V395.8z M440.28,448.1
		c3.4-3.25,8.28-4.87,14.66-4.87h38.6c6.31,0,11.18,1.62,14.61,4.87c3.43,3.25,5.14,7.57,5.14,12.97c0,5.4-1.71,9.73-5.14,12.97
		c-3.43,3.25-8.3,4.87-14.61,4.87h-38.6c-6.37,0-11.26-1.62-14.66-4.87c-3.4-3.25-5.1-7.57-5.1-12.97
		C435.19,455.67,436.88,451.35,440.28,448.1z M465.5,425.66v-17.3h-17.21v17.3H465.5z M454.48,465.53c1.15,1.09,2.79,1.64,4.92,1.64
		h29.68c2.12,0,3.76-0.55,4.92-1.64c1.15-1.09,1.73-2.58,1.73-4.46c0-1.88-0.58-3.38-1.73-4.51c-1.15-1.12-2.79-1.68-4.92-1.68
		H459.4c-2.12,0-3.76,0.56-4.92,1.68c-1.15,1.12-1.73,2.63-1.73,4.51C452.76,462.95,453.33,464.44,454.48,465.53z"/>
</g>
</svg>
